# xmcd
#
# Track frame offsets:
#	150
#	13321
#	39447
#	73411
#	89152
#	108868
#	127007
#	144219
#	163179
#	179316
#	199379
#	216261
#	236586
#	252551
#	283532
#
# Disc length: 3988
#
# Revision: 1
# Processed by: cddbd v1.5.1PL0 Copyright (c) Steve Scherf et al.
# Submitted via: EasyCDDAExtractor 5.0.5.1
# Normalized: r0:DSETVAR1
#
DISCID=ec0f920f
DTITLE=Various Artist - BMG PROMO MUSIC SERVICE MAJ 2003
DYEAR=2003
DGENRE=Acid Punk
TTITLE0=KIRA - I'LL BE YOUR ANGEL(RADIO EDIT)
TTITLE1=KIRA - I'LL BE YOUR ANGEL(EXTENTED MIX)
TTITLE2=KIRA - I'LL BE YOUR ANGEL(ALPHAZONE REMIX)
TTITLE3=B3 - YOU'RE MY ANGEL(RADIO EDIT)
TTITLE4=B3 - YOU'RE MY ANGEL(EXTENTED MIX)
TTITLE5=B3 - YOU'RE MY ANGEL(CLUB MIX)
TTITLE6=GARETH GATES - ANYONE OF US(RADIO MIX)
TTITLE7=GARETH GATES - WHAT MY HEART WANTS TO SAY(RADIO MIX)
TTITLE8=MARC SWAY - NATURAL HIGH (VIDEO MIX)
TTITLE9=MARC SWAY - NATURAL HIGH (REMIX)
TTITLE10=MIA - U DON'T KNOW HOW TO LOVE ME (RADIO EDIT)
TTITLE11=MIA - U DON'T KNOW HOW TO LOVE ME (XTENDED MIX)
TTITLE12=MEMBERS OF MAYDAY - TROOPA OF TOMMOROW(SHORT MIX)
TTITLE13=MEMBERS OF MAYDAY - TROOPA OF TOMMOROW(EXTENTED MIX)
TTITLE14=NOVA INTERNATIONAL - FAVOURITE GIRL
EXTD=
EXTT0=
EXTT1=
EXTT2=
EXTT3=
EXTT4=
EXTT5=
EXTT6=
EXTT7=
EXTT8=
EXTT9=
EXTT10=
EXTT11=
EXTT12=
EXTT13=
EXTT14=
PLAYORDER=
